<svg width="16" height="21" viewBox="0 0 16 21" fill="none" xmlns="http://www.w3.org/2000/svg">
<path d="M13.4388 14.3333V14.7039L13.7009 14.9659L14.9909 16.2559C15.0157 16.2808 15.02 16.2974 15.0216 16.3072C15.0242 16.322 15.0232 16.345 15.0124 16.371C15.0015 16.3971 14.9857 16.4144 14.9728 16.4235C14.964 16.4297 14.9487 16.4385 14.9135 16.4385H1.74355C1.70858 16.4385 1.69479 16.4299 1.68789 16.425C1.67684 16.4171 1.66212 16.4013 1.65181 16.3761C1.6415 16.3508 1.64031 16.3276 1.64316 16.3114C1.64517 16.3 1.65034 16.2818 1.67622 16.2559L2.96622 14.9659L3.22828 14.7039V14.3333V9.33325C3.22828 6.56528 4.66536 4.44648 7.03983 3.88388L7.72829 3.72077V3.01325V2.33325C7.72829 1.9974 7.9977 1.72799 8.33355 1.72799C8.6694 1.72799 8.93881 1.9974 8.93881 2.33325V3.01325V3.7202L9.62658 3.88372C11.9923 4.4462 13.4388 6.57608 13.4388 9.33325V14.3333ZM8.9788 19.228C8.79667 19.3602 8.57345 19.4385 8.33355 19.4385C8.09033 19.4385 7.8661 19.3603 7.68409 19.228H8.9788Z" stroke="#4D4D4D" stroke-width="1.78947"/>
</svg>
