<svg width="14" height="12" viewBox="0 0 14 12" fill="none" xmlns="http://www.w3.org/2000/svg">
<path d="M11.6673 0.75H2.33398C1.36755 0.75 0.583984 1.53356 0.583984 2.5V9.5C0.583984 10.4664 1.36755 11.25 2.33398 11.25H11.6673C12.6338 11.25 13.4173 10.4664 13.4173 9.5V2.5C13.4173 1.53356 12.6338 0.75 11.6673 0.75ZM11.6673 1.91667C11.7347 1.91667 11.7994 1.92804 11.8595 1.94919L7.00065 5.83637L2.14178 1.94919C2.20354 1.92754 2.26854 1.91655 2.33398 1.91667H11.6673ZM11.6673 10.0833H2.33398C2.17927 10.0833 2.0309 10.0219 1.92151 9.91248C1.81211 9.80308 1.75065 9.65471 1.75065 9.5V3.13029L6.63621 7.03877C6.74267 7.12408 6.87159 7.16667 7.00065 7.16667C7.12971 7.16667 7.25863 7.12408 7.36509 7.03877L12.2507 3.13029V9.5C12.2507 9.65471 12.1892 9.80308 12.0798 9.91248C11.9704 10.0219 11.822 10.0833 11.6673 10.0833Z" fill="black"/>
</svg>
