<svg width="12" height="12" viewBox="0 0 12 12" fill="none" xmlns="http://www.w3.org/2000/svg">
<path d="M10.3402 6.58322C10.2118 6.58322 10.0777 6.54238 9.94935 6.51322C9.68946 6.45595 9.43407 6.37991 9.18518 6.28572C8.91457 6.18727 8.6171 6.19238 8.35003 6.30007C8.08295 6.40776 7.86515 6.61042 7.73851 6.86905L7.61018 7.13155C7.04202 6.81549 6.51992 6.42293 6.05851 5.96488C5.60046 5.50348 5.20791 4.98138 4.89185 4.41322L5.13685 4.24988C5.39548 4.12325 5.59814 3.90544 5.70583 3.63837C5.81352 3.3713 5.81863 3.07383 5.72018 2.80322C5.62756 2.5538 5.55156 2.29851 5.49268 2.03905C5.46351 1.91072 5.44018 1.77655 5.42268 1.64238C5.35184 1.23149 5.13663 0.859398 4.81579 0.593105C4.49496 0.326812 4.08959 0.183821 3.67268 0.189882H1.92268C1.67128 0.187522 1.42233 0.239357 1.19276 0.341858C0.963196 0.44436 0.758412 0.595122 0.592349 0.78388C0.426285 0.972639 0.302843 1.19496 0.230424 1.43572C0.158005 1.67647 0.13831 1.93 0.172681 2.17905C0.483445 4.62285 1.59953 6.89348 3.34464 8.63225C5.08976 10.371 7.36443 11.4788 9.80935 11.7807H10.031C10.4612 11.7813 10.8765 11.6235 11.1977 11.3374C11.3822 11.1723 11.5296 10.97 11.6302 10.7437C11.7308 10.5175 11.7822 10.2725 11.781 10.0249V8.27488C11.7739 7.86969 11.6263 7.47954 11.3635 7.17102C11.1008 6.8625 10.7391 6.65475 10.3402 6.58322ZM10.6318 10.0832C10.6317 10.166 10.614 10.2479 10.5798 10.3233C10.5456 10.3988 10.4957 10.4661 10.4335 10.5207C10.3683 10.577 10.2921 10.619 10.2097 10.6441C10.1274 10.6693 10.0407 10.6769 9.95518 10.6665C7.77054 10.3864 5.74132 9.387 4.1876 7.82588C2.63388 6.26477 1.64409 4.23083 1.37435 2.04488C1.36506 1.95943 1.3732 1.87299 1.39827 1.79078C1.42333 1.70856 1.4648 1.63228 1.52018 1.56655C1.57485 1.50433 1.64213 1.45446 1.71757 1.42026C1.793 1.38606 1.87486 1.36832 1.95768 1.36822H3.70768C3.84333 1.3652 3.97579 1.40956 4.08226 1.49367C4.18874 1.57779 4.26255 1.69638 4.29101 1.82905C4.31435 1.98849 4.34351 2.14599 4.37851 2.30155C4.4459 2.60905 4.53558 2.91124 4.64685 3.20572L3.83018 3.58488C3.76035 3.61692 3.69754 3.66243 3.64536 3.71881C3.59317 3.77519 3.55263 3.84132 3.52607 3.91341C3.49951 3.9855 3.48746 4.06213 3.49059 4.13889C3.49373 4.21565 3.512 4.29103 3.54435 4.36072C4.38388 6.15899 5.82941 7.60452 7.62768 8.44405C7.7697 8.50239 7.929 8.50239 8.07101 8.44405C8.14376 8.41803 8.21062 8.37781 8.2677 8.32574C8.32478 8.27367 8.37094 8.21078 8.40351 8.14072L8.76518 7.32405C9.06674 7.43189 9.37452 7.5215 9.68685 7.59238C9.8424 7.62738 9.9999 7.65655 10.1593 7.67988C10.292 7.70834 10.4106 7.78216 10.4947 7.88863C10.5788 7.9951 10.6232 8.12756 10.6202 8.26322L10.6318 10.0832Z" fill="black"/>
</svg>
