<svg width="6" height="22" viewBox="0 0 6 22" fill="none" xmlns="http://www.w3.org/2000/svg">
<path d="M5.33297 19.1675C5.33297 17.8793 4.28867 16.835 3.00047 16.835C1.71226 16.835 0.667969 17.8793 0.667969 19.1675C0.667969 20.4557 1.71226 21.5 3.00047 21.5C4.28867 21.5 5.33297 20.4557 5.33297 19.1675Z" fill="black"/>
<path d="M5.33297 11C5.33297 9.71182 4.28867 8.66752 3.00047 8.66752C1.71226 8.66752 0.667969 9.71182 0.667969 11C0.667969 12.2882 1.71226 13.3325 3.00047 13.3325C4.28867 13.3325 5.33297 12.2882 5.33297 11Z" fill="black"/>
<path d="M5.33297 2.83254C5.33297 1.54434 4.28867 0.50004 3.00047 0.50004C1.71226 0.50004 0.667969 1.54434 0.667969 2.83254C0.667969 4.12074 1.71226 5.16504 3.00047 5.16504C4.28867 5.16504 5.33297 4.12074 5.33297 2.83254Z" fill="black"/>
</svg>
